<?xml version="1.0" encoding="UTF-8" standalone="no"?>
<!DOCTYPE svg PUBLIC "-//W3C//DTD SVG 1.1//EN"
 "http://www.w3.org/Graphics/SVG/1.1/DTD/svg11.dtd">
<!-- Generated by graphviz version 2.40.1 (20161225.0304)
 -->
<!-- Title: finite_state_machine Pages: 1 -->
<svg width="281pt" height="88pt"
 viewBox="0.00 0.00 281.00 87.77" xmlns="http://www.w3.org/2000/svg" xmlns:xlink="http://www.w3.org/1999/xlink">
<g id="graph0" class="graph" transform="scale(1 1) rotate(0) translate(4 83.7713)">
<title>finite_state_machine</title>
<polygon fill="#ffffff" stroke="transparent" points="-4,4 -4,-83.7713 277,-83.7713 277,4 -4,4"/>
<!-- 2 -->
<g id="node1" class="node">
<title>2</title>
<ellipse fill="none" stroke="#000000" cx="18" cy="-19.7713" rx="18" ry="18"/>
<text text-anchor="middle" x="18" y="-16.0713" font-family="Times,serif" font-size="14.00" fill="#000000">2</text>
</g>
<!-- 0 -->
<g id="node2" class="node">
<title>0</title>
<ellipse fill="none" stroke="#000000" cx="97" cy="-61.7713" rx="18" ry="18"/>
<text text-anchor="middle" x="97" y="-58.0713" font-family="Times,serif" font-size="14.00" fill="#000000">0</text>
</g>
<!-- 2&#45;&gt;0 -->
<g id="edge1" class="edge">
<title>2&#45;&gt;0</title>
<path fill="none" stroke="#000000" d="M29.7004,-33.5488C36.1898,-40.3326 44.7972,-48.0486 54,-52.7713 58.5125,-55.087 63.5821,-56.807 68.615,-58.0844"/>
<polygon fill="#000000" stroke="#000000" points="68.2071,-61.5729 78.7038,-60.134 69.6008,-54.7131 68.2071,-61.5729"/>
<text text-anchor="middle" x="57.5" y="-58.5713" font-family="Times,serif" font-size="14.00" fill="#000000">4</text>
</g>
<!-- 3 -->
<g id="node3" class="node">
<title>3</title>
<ellipse fill="none" stroke="#000000" cx="255" cy="-19.7713" rx="18" ry="18"/>
<text text-anchor="middle" x="255" y="-16.0713" font-family="Times,serif" font-size="14.00" fill="#000000">3</text>
</g>
<!-- 2&#45;&gt;3 -->
<g id="edge2" class="edge">
<title>2&#45;&gt;3</title>
<path fill="none" stroke="#000000" d="M36.2035,-19.7713C77.217,-19.7713 177.1089,-19.7713 226.4534,-19.7713"/>
<polygon fill="#000000" stroke="#000000" points="226.7345,-23.2714 236.7345,-19.7713 226.7345,-16.2714 226.7345,-23.2714"/>
<text text-anchor="middle" x="136.5" y="-23.5713" font-family="Times,serif" font-size="14.00" fill="#000000">1</text>
</g>
<!-- 0&#45;&gt;2 -->
<g id="edge3" class="edge">
<title>0&#45;&gt;2</title>
<path fill="none" stroke="#000000" d="M83.4182,-49.3892C76.9842,-44.0179 68.9732,-38.0026 61,-33.7713 56.1824,-31.2146 50.813,-29.0146 45.5461,-27.1659"/>
<polygon fill="#000000" stroke="#000000" points="46.3063,-23.7351 35.7159,-24.0425 44.1865,-30.4065 46.3063,-23.7351"/>
<text text-anchor="middle" x="57.5" y="-37.5713" font-family="Times,serif" font-size="14.00" fill="#000000">0</text>
</g>
<!-- 1 -->
<g id="node4" class="node">
<title>1</title>
<ellipse fill="none" stroke="#000000" cx="176" cy="-61.7713" rx="18" ry="18"/>
<text text-anchor="middle" x="176" y="-58.0713" font-family="Times,serif" font-size="14.00" fill="#000000">1</text>
</g>
<!-- 0&#45;&gt;1 -->
<g id="edge4" class="edge">
<title>0&#45;&gt;1</title>
<path fill="none" stroke="#000000" d="M115.3228,-61.7713C124.8947,-61.7713 136.8223,-61.7713 147.5629,-61.7713"/>
<polygon fill="#000000" stroke="#000000" points="147.7766,-65.2714 157.7766,-61.7713 147.7766,-58.2714 147.7766,-65.2714"/>
<text text-anchor="middle" x="136.5" y="-65.5713" font-family="Times,serif" font-size="14.00" fill="#000000">1</text>
</g>
<!-- 3&#45;&gt;2 -->
<g id="edge7" class="edge">
<title>3&#45;&gt;2</title>
<path fill="none" stroke="#000000" d="M237.72,-14.4607C214.1645,-7.8235 170.6008,2.3139 133,-.7713 102.9179,-3.2396 68.8508,-9.2816 45.6543,-13.895"/>
<polygon fill="#000000" stroke="#000000" points="44.9166,-10.4733 35.8148,-15.8962 46.3118,-17.3329 44.9166,-10.4733"/>
<text text-anchor="middle" x="136.5" y="-4.5713" font-family="Times,serif" font-size="14.00" fill="#000000">4</text>
</g>
<!-- 3&#45;&gt;1 -->
<g id="edge8" class="edge">
<title>3&#45;&gt;1</title>
<path fill="none" stroke="#000000" d="M237.2841,-24.0425C229.2976,-26.3406 219.9058,-29.5757 212,-33.7713 207.1413,-36.3498 202.2686,-39.5907 197.7473,-42.9447"/>
<polygon fill="#000000" stroke="#000000" points="195.2632,-40.4465 189.5818,-49.3892 199.5999,-45.9413 195.2632,-40.4465"/>
<text text-anchor="middle" x="215.5" y="-37.5713" font-family="Times,serif" font-size="14.00" fill="#000000">1</text>
</g>
<!-- 1&#45;&gt;0 -->
<g id="edge5" class="edge">
<title>1&#45;&gt;0</title>
<path fill="none" stroke="#000000" d="M161.7184,-50.1359C153.5546,-44.8629 142.9819,-40.2988 133,-42.7713 129.0235,-43.7563 125.0019,-45.2694 121.1597,-47.021"/>
<polygon fill="#000000" stroke="#000000" points="119.3818,-44 112.1057,-51.7013 122.5962,-50.2183 119.3818,-44"/>
<text text-anchor="middle" x="136.5" y="-46.5713" font-family="Times,serif" font-size="14.00" fill="#000000">1</text>
</g>
<!-- 1&#45;&gt;3 -->
<g id="edge6" class="edge">
<title>1&#45;&gt;3</title>
<path fill="none" stroke="#000000" d="M194.2962,-60.134C202.2196,-58.8816 211.4,-56.6715 219,-52.7713 225.0393,-49.6721 230.8222,-45.2836 235.9184,-40.7156"/>
<polygon fill="#000000" stroke="#000000" points="238.5633,-43.026 243.2996,-33.5488 233.687,-38.0038 238.5633,-43.026"/>
<text text-anchor="middle" x="215.5" y="-58.5713" font-family="Times,serif" font-size="14.00" fill="#000000">0</text>
</g>
</g>
</svg>
