<?xml version="1.0" encoding="UTF-8" standalone="no"?>
<!DOCTYPE svg PUBLIC "-//W3C//DTD SVG 1.1//EN"
 "http://www.w3.org/Graphics/SVG/1.1/DTD/svg11.dtd">
<!-- Generated by graphviz version 2.40.1 (20161225.0304)
 -->
<!-- Title: finite_state_machine Pages: 1 -->
<svg width="439pt" height="298pt"
 viewBox="0.00 0.00 439.00 298.00" xmlns="http://www.w3.org/2000/svg" xmlns:xlink="http://www.w3.org/1999/xlink">
<g id="graph0" class="graph" transform="scale(1 1) rotate(0) translate(4 294)">
<title>finite_state_machine</title>
<polygon fill="#ffffff" stroke="transparent" points="-4,4 -4,-294 435,-294 435,4 -4,4"/>
<!-- 2 -->
<g id="node1" class="node">
<title>2</title>
<ellipse fill="none" stroke="#000000" cx="18" cy="-84" rx="18" ry="18"/>
<text text-anchor="middle" x="18" y="-80.3" font-family="Times,serif" font-size="14.00" fill="#000000">2</text>
</g>
<!-- 0 -->
<g id="node2" class="node">
<title>0</title>
<ellipse fill="none" stroke="#000000" cx="97" cy="-145" rx="18" ry="18"/>
<text text-anchor="middle" x="97" y="-141.3" font-family="Times,serif" font-size="14.00" fill="#000000">0</text>
</g>
<!-- 2&#45;&gt;0 -->
<g id="edge1" class="edge">
<title>2&#45;&gt;0</title>
<path fill="none" stroke="#000000" d="M32.4898,-95.1883C44.294,-104.303 61.1605,-117.3265 74.6868,-127.7708"/>
<polygon fill="#000000" stroke="#000000" points="72.5479,-130.5412 82.602,-133.8826 76.826,-125.0007 72.5479,-130.5412"/>
<text text-anchor="middle" x="57.5" y="-119.8" font-family="Times,serif" font-size="14.00" fill="#000000">2</text>
</g>
<!-- 3 -->
<g id="node3" class="node">
<title>3</title>
<ellipse fill="none" stroke="#000000" cx="413" cy="-69" rx="18" ry="18"/>
<text text-anchor="middle" x="413" y="-65.3" font-family="Times,serif" font-size="14.00" fill="#000000">3</text>
</g>
<!-- 2&#45;&gt;3 -->
<g id="edge2" class="edge">
<title>2&#45;&gt;3</title>
<path fill="none" stroke="#000000" d="M30.6582,-70.9413C45.2584,-57.3417 70.6542,-38 97,-38 97,-38 97,-38 334,-38 353.2168,-38 373.3589,-46.047 388.4952,-53.9413"/>
<polygon fill="#000000" stroke="#000000" points="387.2159,-57.2339 397.6589,-59.0208 390.6095,-51.1115 387.2159,-57.2339"/>
<text text-anchor="middle" x="215.5" y="-41.8" font-family="Times,serif" font-size="14.00" fill="#000000">3</text>
</g>
<!-- 0&#45;&gt;2 -->
<g id="edge7" class="edge">
<title>0&#45;&gt;2</title>
<path fill="none" stroke="#000000" d="M79.1217,-142.7444C70.9188,-141.054 61.3966,-138.111 54,-133 45.1052,-126.8538 37.5653,-117.7822 31.7199,-109.1099"/>
<polygon fill="#000000" stroke="#000000" points="34.5202,-106.9862 26.2561,-100.3564 28.5821,-110.6927 34.5202,-106.9862"/>
<text text-anchor="middle" x="57.5" y="-139.8" font-family="Times,serif" font-size="14.00" fill="#000000">2</text>
</g>
<!-- 1 -->
<g id="node6" class="node">
<title>1</title>
<ellipse fill="none" stroke="#000000" cx="176" cy="-121" rx="18" ry="18"/>
<text text-anchor="middle" x="176" y="-117.3" font-family="Times,serif" font-size="14.00" fill="#000000">1</text>
</g>
<!-- 0&#45;&gt;1 -->
<g id="edge8" class="edge">
<title>0&#45;&gt;1</title>
<path fill="none" stroke="#000000" d="M114.6804,-140.8832C122.4897,-138.9607 131.7513,-136.538 140,-134 143.0148,-133.0724 146.1494,-132.0418 149.2556,-130.9783"/>
<polygon fill="#000000" stroke="#000000" points="150.6473,-134.1984 158.9005,-127.5548 148.3057,-127.6016 150.6473,-134.1984"/>
<text text-anchor="middle" x="136.5" y="-139.8" font-family="Times,serif" font-size="14.00" fill="#000000">0</text>
</g>
<!-- 3&#45;&gt;2 -->
<g id="edge3" class="edge">
<title>3&#45;&gt;2</title>
<path fill="none" stroke="#000000" d="M404.0669,-52.9966C391.371,-32.6133 366.0499,0 334,0 97,0 97,0 97,0 64.8342,0 41.9254,-33.0887 29.3243,-57.7315"/>
<polygon fill="#000000" stroke="#000000" points="26.0451,-56.4737 24.8535,-67.0013 32.3501,-59.5146 26.0451,-56.4737"/>
<text text-anchor="middle" x="215.5" y="-3.8" font-family="Times,serif" font-size="14.00" fill="#000000">2</text>
</g>
<!-- 5 -->
<g id="node4" class="node">
<title>5</title>
<ellipse fill="none" stroke="#000000" cx="334" cy="-177" rx="18" ry="18"/>
<text text-anchor="middle" x="334" y="-173.3" font-family="Times,serif" font-size="14.00" fill="#000000">5</text>
</g>
<!-- 3&#45;&gt;5 -->
<g id="edge4" class="edge">
<title>3&#45;&gt;5</title>
<path fill="none" stroke="#000000" d="M397.6384,-78.5947C388.7206,-84.7415 377.7532,-93.3586 370,-103 358.652,-117.1118 349.7161,-135.39 343.5856,-150.2496"/>
<polygon fill="#000000" stroke="#000000" points="340.1943,-149.3103 339.7945,-159.8976 346.7093,-151.8704 340.1943,-149.3103"/>
<text text-anchor="middle" x="373.5" y="-106.8" font-family="Times,serif" font-size="14.00" fill="#000000">2</text>
</g>
<!-- 5&#45;&gt;3 -->
<g id="edge5" class="edge">
<title>5&#45;&gt;3</title>
<path fill="none" stroke="#000000" d="M344.6543,-162.4346C357.9062,-144.3182 380.6823,-113.1812 396.2716,-91.8692"/>
<polygon fill="#000000" stroke="#000000" points="399.1832,-93.8171 402.2622,-83.6795 393.5333,-89.6843 399.1832,-93.8171"/>
<text text-anchor="middle" x="373.5" y="-129.8" font-family="Times,serif" font-size="14.00" fill="#000000">2</text>
</g>
<!-- 6 -->
<g id="node5" class="node">
<title>6</title>
<ellipse fill="none" stroke="#000000" cx="413" cy="-231" rx="18" ry="18"/>
<text text-anchor="middle" x="413" y="-227.3" font-family="Times,serif" font-size="14.00" fill="#000000">6</text>
</g>
<!-- 5&#45;&gt;6 -->
<g id="edge6" class="edge">
<title>5&#45;&gt;6</title>
<path fill="none" stroke="#000000" d="M352.1343,-174.3528C360.2053,-174.0236 369.5474,-174.8717 377,-179 387.5894,-184.8659 395.7349,-195.3239 401.5773,-205.3307"/>
<polygon fill="#000000" stroke="#000000" points="398.5269,-207.0492 406.2995,-214.2491 404.7132,-203.7736 398.5269,-207.0492"/>
<text text-anchor="middle" x="373.5" y="-182.8" font-family="Times,serif" font-size="14.00" fill="#000000">0</text>
</g>
<!-- 6&#45;&gt;5 -->
<g id="edge16" class="edge">
<title>6&#45;&gt;5</title>
<path fill="none" stroke="#000000" d="M398.0827,-220.8034C386.7259,-213.0405 370.869,-202.2016 357.7704,-193.2481"/>
<polygon fill="#000000" stroke="#000000" points="359.4627,-190.1654 349.232,-187.4117 355.5125,-195.9444 359.4627,-190.1654"/>
<text text-anchor="middle" x="373.5" y="-208.8" font-family="Times,serif" font-size="14.00" fill="#000000">2</text>
</g>
<!-- 4 -->
<g id="node7" class="node">
<title>4</title>
<ellipse fill="none" stroke="#000000" cx="255" cy="-177" rx="18" ry="18"/>
<text text-anchor="middle" x="255" y="-173.3" font-family="Times,serif" font-size="14.00" fill="#000000">4</text>
</g>
<!-- 6&#45;&gt;4 -->
<g id="edge17" class="edge">
<title>6&#45;&gt;4</title>
<path fill="none" stroke="#000000" d="M394.8587,-228.7829C387.1317,-227.6494 378.0592,-226.0664 370,-224 333.916,-214.748 325.1174,-210.9552 291,-196 287.3187,-194.3863 283.4963,-192.5519 279.7771,-190.6744"/>
<polygon fill="#000000" stroke="#000000" points="281.3668,-187.556 270.8839,-186.0199 278.1208,-193.758 281.3668,-187.556"/>
<text text-anchor="middle" x="334" y="-221.8" font-family="Times,serif" font-size="14.00" fill="#000000">2</text>
</g>
<!-- 1&#45;&gt;2 -->
<g id="edge10" class="edge">
<title>1&#45;&gt;2</title>
<path fill="none" stroke="#000000" d="M158.8812,-114.9586C152.9378,-112.9506 146.2073,-110.7758 140,-109 108.1703,-99.8938 70.7694,-92.7368 45.8499,-88.4552"/>
<polygon fill="#000000" stroke="#000000" points="46.4285,-85.0035 35.9869,-86.799 45.2692,-91.9068 46.4285,-85.0035"/>
<text text-anchor="middle" x="97" y="-105.8" font-family="Times,serif" font-size="14.00" fill="#000000">3</text>
</g>
<!-- 1&#45;&gt;0 -->
<g id="edge11" class="edge">
<title>1&#45;&gt;0</title>
<path fill="none" stroke="#000000" d="M158.8618,-114.9088C150.821,-112.9763 141.2214,-112.0235 133,-115 127.1193,-117.1291 121.5241,-120.6848 116.5733,-124.6183"/>
<polygon fill="#000000" stroke="#000000" points="114.0739,-122.1566 108.913,-131.4095 118.7177,-127.3945 114.0739,-122.1566"/>
<text text-anchor="middle" x="136.5" y="-118.8" font-family="Times,serif" font-size="14.00" fill="#000000">2</text>
</g>
<!-- 1&#45;&gt;3 -->
<g id="edge9" class="edge">
<title>1&#45;&gt;3</title>
<path fill="none" stroke="#000000" d="M193.8135,-117.0915C234.8328,-108.0915 336.1969,-85.8513 385.367,-75.0629"/>
<polygon fill="#000000" stroke="#000000" points="386.2855,-78.4447 395.3031,-72.8829 384.7853,-71.6074 386.2855,-78.4447"/>
<text text-anchor="middle" x="294.5" y="-98.8" font-family="Times,serif" font-size="14.00" fill="#000000">1</text>
</g>
<!-- 1&#45;&gt;4 -->
<g id="edge12" class="edge">
<title>1&#45;&gt;4</title>
<path fill="none" stroke="#000000" d="M194.1654,-124.0395C202.2427,-125.9864 211.5811,-129.1003 219,-134 226.7079,-139.0906 233.6471,-146.314 239.3288,-153.3901"/>
<polygon fill="#000000" stroke="#000000" points="236.5981,-155.5828 245.3916,-161.4926 242.2028,-151.389 236.5981,-155.5828"/>
<text text-anchor="middle" x="215.5" y="-137.8" font-family="Times,serif" font-size="14.00" fill="#000000">1</text>
</g>
<!-- 4&#45;&gt;5 -->
<g id="edge13" class="edge">
<title>4&#45;&gt;5</title>
<path fill="none" stroke="#000000" d="M273.3228,-177C282.8947,-177 294.8223,-177 305.5629,-177"/>
<polygon fill="#000000" stroke="#000000" points="305.7766,-180.5001 315.7766,-177 305.7766,-173.5001 305.7766,-180.5001"/>
<text text-anchor="middle" x="294.5" y="-180.8" font-family="Times,serif" font-size="14.00" fill="#000000">1</text>
</g>
<!-- 4&#45;&gt;6 -->
<g id="edge15" class="edge">
<title>4&#45;&gt;6</title>
<path fill="none" stroke="#000000" d="M257.7704,-194.8337C261.7122,-213.9423 270.8397,-243.7147 291,-260 320.7332,-284.0182 342.382,-276.2028 377,-260 382.2699,-257.5334 387.4423,-254.138 392.1496,-250.5377"/>
<polygon fill="#000000" stroke="#000000" points="394.5787,-253.0703 400.0414,-243.9922 390.1099,-247.6823 394.5787,-253.0703"/>
<text text-anchor="middle" x="334" y="-278.8" font-family="Times,serif" font-size="14.00" fill="#000000">1</text>
</g>
<!-- 4&#45;&gt;1 -->
<g id="edge14" class="edge">
<title>4&#45;&gt;1</title>
<path fill="none" stroke="#000000" d="M239.6679,-167.457C231.3659,-162.1801 220.9962,-155.4105 212,-149 207.5205,-145.808 202.8212,-142.2865 198.3512,-138.8494"/>
<polygon fill="#000000" stroke="#000000" points="200.1926,-135.8468 190.1561,-132.4527 195.8854,-141.3648 200.1926,-135.8468"/>
<text text-anchor="middle" x="215.5" y="-156.8" font-family="Times,serif" font-size="14.00" fill="#000000">2</text>
</g>
</g>
</svg>
