<?xml version="1.0" encoding="UTF-8" standalone="no"?>
<!DOCTYPE svg PUBLIC "-//W3C//DTD SVG 1.1//EN"
 "http://www.w3.org/Graphics/SVG/1.1/DTD/svg11.dtd">
<!-- Generated by graphviz version 2.40.1 (20161225.0304)
 -->
<!-- Title: finite_state_machine Pages: 1 -->
<svg width="281pt" height="149pt"
 viewBox="0.00 0.00 281.00 149.00" xmlns="http://www.w3.org/2000/svg" xmlns:xlink="http://www.w3.org/1999/xlink">
<g id="graph0" class="graph" transform="scale(1 1) rotate(0) translate(4 145)">
<title>finite_state_machine</title>
<polygon fill="#ffffff" stroke="transparent" points="-4,4 -4,-145 277,-145 277,4 -4,4"/>
<!-- 0 -->
<g id="node1" class="node">
<title>0</title>
<ellipse fill="none" stroke="#000000" cx="18" cy="-18" rx="18" ry="18"/>
<text text-anchor="middle" x="18" y="-14.3" font-family="Times,serif" font-size="14.00" fill="#000000">0</text>
</g>
<!-- 2 -->
<g id="node2" class="node">
<title>2</title>
<ellipse fill="none" stroke="#000000" cx="97" cy="-78" rx="18" ry="18"/>
<text text-anchor="middle" x="97" y="-74.3" font-family="Times,serif" font-size="14.00" fill="#000000">2</text>
</g>
<!-- 0&#45;&gt;2 -->
<g id="edge1" class="edge">
<title>0&#45;&gt;2</title>
<path fill="none" stroke="#000000" d="M29.8696,-31.5723C36.537,-38.7384 45.2565,-47.3912 54,-54 59.371,-58.0597 65.5066,-61.8927 71.4281,-65.2545"/>
<polygon fill="#000000" stroke="#000000" points="69.9553,-68.437 80.4165,-70.1141 73.2845,-62.2793 69.9553,-68.437"/>
<text text-anchor="middle" x="57.5" y="-61.8" font-family="Times,serif" font-size="14.00" fill="#000000">0</text>
</g>
<!-- 1 -->
<g id="node3" class="node">
<title>1</title>
<ellipse fill="none" stroke="#000000" cx="255" cy="-62" rx="18" ry="18"/>
<text text-anchor="middle" x="255" y="-58.3" font-family="Times,serif" font-size="14.00" fill="#000000">1</text>
</g>
<!-- 0&#45;&gt;1 -->
<g id="edge2" class="edge">
<title>0&#45;&gt;1</title>
<path fill="none" stroke="#000000" d="M35.941,-19.8566C71.3159,-23.7363 152.4113,-33.7177 219,-50 222.0378,-50.7428 225.1868,-51.6227 228.3013,-52.5634"/>
<polygon fill="#000000" stroke="#000000" points="227.3629,-55.9383 237.9546,-55.6817 229.5147,-49.2772 227.3629,-55.9383"/>
<text text-anchor="middle" x="136.5" y="-36.8" font-family="Times,serif" font-size="14.00" fill="#000000">0</text>
</g>
<!-- 2&#45;&gt;0 -->
<g id="edge6" class="edge">
<title>2&#45;&gt;0</title>
<path fill="none" stroke="#000000" d="M87.1786,-62.8011C80.6669,-53.7182 71.4213,-42.5209 61,-35 56.2807,-31.5941 50.7856,-28.7539 45.3328,-26.4321"/>
<polygon fill="#000000" stroke="#000000" points="46.3313,-23.0678 35.7398,-22.8025 43.8541,-29.6149 46.3313,-23.0678"/>
<text text-anchor="middle" x="57.5" y="-38.8" font-family="Times,serif" font-size="14.00" fill="#000000">4</text>
</g>
<!-- 2&#45;&gt;1 -->
<g id="edge7" class="edge">
<title>2&#45;&gt;1</title>
<path fill="none" stroke="#000000" d="M108.0778,-92.2021C114.6376,-99.8253 123.5069,-108.884 133,-115 156.0375,-129.842 166.9233,-128.2267 194,-124 205.5265,-122.2007 209.6864,-123.0253 219,-116 228.8484,-108.5713 236.8576,-97.6199 242.7994,-87.5176"/>
<polygon fill="#000000" stroke="#000000" points="245.946,-89.0581 247.6684,-78.6042 239.8028,-85.7023 245.946,-89.0581"/>
<text text-anchor="middle" x="176" y="-129.8" font-family="Times,serif" font-size="14.00" fill="#000000">1</text>
</g>
<!-- 3 -->
<g id="node4" class="node">
<title>3</title>
<ellipse fill="none" stroke="#000000" cx="176" cy="-97" rx="18" ry="18"/>
<text text-anchor="middle" x="176" y="-93.3" font-family="Times,serif" font-size="14.00" fill="#000000">3</text>
</g>
<!-- 2&#45;&gt;3 -->
<g id="edge8" class="edge">
<title>2&#45;&gt;3</title>
<path fill="none" stroke="#000000" d="M112.6256,-87.0272C118.775,-90.1336 126.0243,-93.2646 133,-95 137.612,-96.1474 142.5861,-96.8481 147.4579,-97.2533"/>
<polygon fill="#000000" stroke="#000000" points="147.629,-100.7648 157.779,-97.727 147.95,-93.7721 147.629,-100.7648"/>
<text text-anchor="middle" x="136.5" y="-99.8" font-family="Times,serif" font-size="14.00" fill="#000000">0</text>
</g>
<!-- 1&#45;&gt;0 -->
<g id="edge4" class="edge">
<title>1&#45;&gt;0</title>
<path fill="none" stroke="#000000" d="M238.952,-53.6401C226.8006,-47.4903 209.5944,-39.1639 194,-33 170.339,-23.6477 165.0791,-18.2834 140,-14 108.1558,-8.5612 70.9765,-11.0181 46.1075,-13.8959"/>
<polygon fill="#000000" stroke="#000000" points="45.4174,-10.455 35.933,-15.1768 46.2919,-17.4002 45.4174,-10.455"/>
<text text-anchor="middle" x="136.5" y="-17.8" font-family="Times,serif" font-size="14.00" fill="#000000">2</text>
</g>
<!-- 1&#45;&gt;2 -->
<g id="edge5" class="edge">
<title>1&#45;&gt;2</title>
<path fill="none" stroke="#000000" d="M237.3329,-58.0817C217.7806,-54.3566 185.4072,-50.0047 158,-55 146.1025,-57.1685 133.5097,-61.5337 122.8748,-65.884"/>
<polygon fill="#000000" stroke="#000000" points="121.1658,-62.8091 113.3649,-69.9782 123.9339,-69.2386 121.1658,-62.8091"/>
<text text-anchor="middle" x="176" y="-58.8" font-family="Times,serif" font-size="14.00" fill="#000000">2</text>
</g>
<!-- 1&#45;&gt;3 -->
<g id="edge3" class="edge">
<title>1&#45;&gt;3</title>
<path fill="none" stroke="#000000" d="M238.1804,-68.8365C230.2094,-72.1285 220.5765,-76.1822 212,-80 208.679,-81.4783 205.2031,-83.0668 201.7761,-84.6577"/>
<polygon fill="#000000" stroke="#000000" points="199.977,-81.6359 192.4167,-89.0584 202.9555,-87.9706 199.977,-81.6359"/>
<text text-anchor="middle" x="215.5" y="-83.8" font-family="Times,serif" font-size="14.00" fill="#000000">0</text>
</g>
<!-- 3&#45;&gt;2 -->
<g id="edge10" class="edge">
<title>3&#45;&gt;2</title>
<path fill="none" stroke="#000000" d="M161.3795,-86.104C155.1296,-82.0956 147.5437,-78.0394 140,-76 135.2025,-74.703 129.9958,-74.2148 124.9164,-74.2027"/>
<polygon fill="#000000" stroke="#000000" points="124.6399,-70.7123 114.8405,-74.74 125.0127,-77.7024 124.6399,-70.7123"/>
<text text-anchor="middle" x="136.5" y="-79.8" font-family="Times,serif" font-size="14.00" fill="#000000">5</text>
</g>
<!-- 3&#45;&gt;1 -->
<g id="edge9" class="edge">
<title>3&#45;&gt;1</title>
<path fill="none" stroke="#000000" d="M194.1745,-98.865C202.0754,-98.9995 211.2718,-98.2148 219,-95 225.2675,-92.3928 231.1359,-88.1887 236.2417,-83.6415"/>
<polygon fill="#000000" stroke="#000000" points="238.9265,-85.9093 243.5854,-76.3938 234.0094,-80.9271 238.9265,-85.9093"/>
<text text-anchor="middle" x="215.5" y="-100.8" font-family="Times,serif" font-size="14.00" fill="#000000">1</text>
</g>
</g>
</svg>
